<mxfile host="app.diagrams.net" modified="2020-09-25T06:52:34.237Z" agent="5.0 (X11; Linux x86_64) AppleWebKit/537.36 (KHTML, like Gecko) Chrome/83.0.4103.116 Safari/537.36" etag="y-kRPljzrAXuGPUwhuEr" version="13.7.5" type="github" pages="3">
  <diagram id="wEaCn_P4HerrY1ni2o7-" name="Odd 100 to 200">
    <mxGraphModel dx="796" dy="462" grid="1" gridSize="10" guides="1" tooltips="1" connect="1" arrows="1" fold="1" page="1" pageScale="1" pageWidth="850" pageHeight="1100" background="#DAD2D8" math="0" shadow="0">
      <root>
        <mxCell id="0" />
        <mxCell id="1" parent="0" />
        <mxCell id="iye8wbZdq11QzwI4YBiY-4" value="Start" style="strokeWidth=2;html=1;shape=mxgraph.flowchart.terminator;whiteSpace=wrap;fillColor=#FAE5C7;strokeColor=#0F8B8D;fontColor=#143642;" parent="1" vertex="1">
          <mxGeometry x="340" y="20" width="150" height="60" as="geometry" />
        </mxCell>
        <mxCell id="iye8wbZdq11QzwI4YBiY-7" value="" style="endArrow=classic;html=1;strokeColor=#A8201A;fillColor=#FAE5C7;fontColor=#143642;" parent="1" source="iye8wbZdq11QzwI4YBiY-4" edge="1">
          <mxGeometry width="50" height="50" relative="1" as="geometry">
            <mxPoint x="390" y="120" as="sourcePoint" />
            <mxPoint x="420" y="130" as="targetPoint" />
            <Array as="points">
              <mxPoint x="420" y="90" />
            </Array>
          </mxGeometry>
        </mxCell>
        <mxCell id="iye8wbZdq11QzwI4YBiY-8" value="C=101" style="rounded=1;whiteSpace=wrap;html=1;absoluteArcSize=1;arcSize=14;strokeWidth=2;sketch=0;fillColor=#FAE5C7;fontColor=#143642;" parent="1" vertex="1">
          <mxGeometry x="343" y="130" width="147" height="60" as="geometry" />
        </mxCell>
        <mxCell id="iye8wbZdq11QzwI4YBiY-11" value="Print C" style="shape=parallelogram;perimeter=parallelogramPerimeter;whiteSpace=wrap;html=1;fixedSize=1;rounded=0;sketch=0;strokeColor=#0F8B8D;fillColor=#FAE5C7;fontColor=#143642;" parent="1" vertex="1">
          <mxGeometry x="356.5" y="260" width="120" height="60" as="geometry" />
        </mxCell>
        <mxCell id="iye8wbZdq11QzwI4YBiY-14" value="If C&amp;gt;200" style="rhombus;whiteSpace=wrap;html=1;rounded=0;sketch=0;strokeColor=#0F8B8D;fillColor=#FAE5C7;fontColor=#143642;" parent="1" vertex="1">
          <mxGeometry x="376.5" y="480" width="80" height="80" as="geometry" />
        </mxCell>
        <mxCell id="iye8wbZdq11QzwI4YBiY-16" value="" style="endArrow=classic;html=1;strokeColor=#A8201A;fillColor=#FAE5C7;fontColor=#143642;exitX=0;exitY=0.5;exitDx=0;exitDy=0;" parent="1" source="iye8wbZdq11QzwI4YBiY-14" edge="1">
          <mxGeometry relative="1" as="geometry">
            <mxPoint x="370" y="519.5" as="sourcePoint" />
            <mxPoint x="180" y="520" as="targetPoint" />
          </mxGeometry>
        </mxCell>
        <mxCell id="iye8wbZdq11QzwI4YBiY-17" value="NO" style="edgeLabel;resizable=0;html=1;align=center;verticalAlign=middle;" parent="iye8wbZdq11QzwI4YBiY-16" connectable="0" vertex="1">
          <mxGeometry relative="1" as="geometry" />
        </mxCell>
        <mxCell id="iye8wbZdq11QzwI4YBiY-19" value="" style="endArrow=classic;html=1;strokeColor=#A8201A;fillColor=#FAE5C7;fontColor=#143642;" parent="1" edge="1">
          <mxGeometry width="50" height="50" relative="1" as="geometry">
            <mxPoint x="180" y="520" as="sourcePoint" />
            <mxPoint x="180" y="220" as="targetPoint" />
          </mxGeometry>
        </mxCell>
        <mxCell id="iye8wbZdq11QzwI4YBiY-21" value="" style="endArrow=classic;html=1;strokeColor=#A8201A;fillColor=#FAE5C7;fontColor=#143642;" parent="1" edge="1">
          <mxGeometry width="50" height="50" relative="1" as="geometry">
            <mxPoint x="180" y="220" as="sourcePoint" />
            <mxPoint x="420" y="220" as="targetPoint" />
          </mxGeometry>
        </mxCell>
        <mxCell id="iye8wbZdq11QzwI4YBiY-23" value="C=C+2" style="rounded=1;whiteSpace=wrap;html=1;sketch=0;strokeColor=#0F8B8D;fillColor=#FAE5C7;fontColor=#143642;" parent="1" vertex="1">
          <mxGeometry x="356.5" y="360" width="120" height="60" as="geometry" />
        </mxCell>
        <mxCell id="iye8wbZdq11QzwI4YBiY-24" value="" style="endArrow=classic;html=1;strokeColor=#A8201A;fillColor=#FAE5C7;fontColor=#143642;entryX=0.5;entryY=0;entryDx=0;entryDy=0;exitX=0.5;exitY=1;exitDx=0;exitDy=0;" parent="1" source="iye8wbZdq11QzwI4YBiY-11" target="iye8wbZdq11QzwI4YBiY-23" edge="1">
          <mxGeometry width="50" height="50" relative="1" as="geometry">
            <mxPoint x="375" y="330" as="sourcePoint" />
            <mxPoint x="425" y="280" as="targetPoint" />
          </mxGeometry>
        </mxCell>
        <mxCell id="iye8wbZdq11QzwI4YBiY-27" value="" style="endArrow=classic;html=1;strokeColor=#A8201A;fillColor=#FAE5C7;fontColor=#143642;entryX=0.5;entryY=0;entryDx=0;entryDy=0;exitX=0.5;exitY=1;exitDx=0;exitDy=0;" parent="1" source="iye8wbZdq11QzwI4YBiY-23" target="iye8wbZdq11QzwI4YBiY-14" edge="1">
          <mxGeometry width="50" height="50" relative="1" as="geometry">
            <mxPoint x="380" y="410" as="sourcePoint" />
            <mxPoint x="430" y="360" as="targetPoint" />
          </mxGeometry>
        </mxCell>
        <mxCell id="iye8wbZdq11QzwI4YBiY-28" value="" style="endArrow=classic;html=1;strokeColor=#A8201A;fillColor=#FAE5C7;fontColor=#143642;exitX=0.5;exitY=1;exitDx=0;exitDy=0;entryX=0.5;entryY=0;entryDx=0;entryDy=0;entryPerimeter=0;" parent="1" source="iye8wbZdq11QzwI4YBiY-14" target="iye8wbZdq11QzwI4YBiY-30" edge="1">
          <mxGeometry width="50" height="50" relative="1" as="geometry">
            <mxPoint x="376.5" y="570" as="sourcePoint" />
            <mxPoint x="376.5" y="640" as="targetPoint" />
          </mxGeometry>
        </mxCell>
        <mxCell id="iye8wbZdq11QzwI4YBiY-30" value="Stop" style="strokeWidth=2;html=1;shape=mxgraph.flowchart.terminator;whiteSpace=wrap;rounded=0;sketch=0;fillColor=#FAE5C7;fontColor=#143642;" parent="1" vertex="1">
          <mxGeometry x="353.25" y="640" width="126.5" height="50" as="geometry" />
        </mxCell>
        <mxCell id="iye8wbZdq11QzwI4YBiY-32" value="" style="endArrow=classic;html=1;strokeColor=#A8201A;fillColor=#FAE5C7;fontColor=#143642;exitX=0.5;exitY=1;exitDx=0;exitDy=0;entryX=0.5;entryY=0;entryDx=0;entryDy=0;" parent="1" source="iye8wbZdq11QzwI4YBiY-8" target="iye8wbZdq11QzwI4YBiY-11" edge="1">
          <mxGeometry width="50" height="50" relative="1" as="geometry">
            <mxPoint x="400" y="350" as="sourcePoint" />
            <mxPoint x="450" y="300" as="targetPoint" />
          </mxGeometry>
        </mxCell>
      </root>
    </mxGraphModel>
  </diagram>
  <diagram id="DGqa_HVRkCRsVZT3Ft9X" name="Number between 200 and 300 divisible by 5">
    <mxGraphModel dx="796" dy="462" grid="1" gridSize="10" guides="1" tooltips="1" connect="1" arrows="1" fold="1" page="1" pageScale="1" pageWidth="850" pageHeight="1100" background="#E5CCFF" math="0" shadow="0">
      <root>
        <mxCell id="JyyrVBmu4leUVjlZQpk8-0" />
        <mxCell id="JyyrVBmu4leUVjlZQpk8-1" parent="JyyrVBmu4leUVjlZQpk8-0" />
        <mxCell id="JyyrVBmu4leUVjlZQpk8-2" value="Start" style="strokeWidth=2;html=1;shape=mxgraph.flowchart.terminator;whiteSpace=wrap;" parent="JyyrVBmu4leUVjlZQpk8-1" vertex="1">
          <mxGeometry x="420" y="80" width="100" height="60" as="geometry" />
        </mxCell>
        <mxCell id="ylgR5V-5d-WVESOGc4hD-0" value="" style="endArrow=classic;html=1;exitX=0.5;exitY=1;exitDx=0;exitDy=0;exitPerimeter=0;entryX=0.5;entryY=0;entryDx=0;entryDy=0;" parent="JyyrVBmu4leUVjlZQpk8-1" source="JyyrVBmu4leUVjlZQpk8-2" target="e5rz-6hekVtycdCwCi9j-0" edge="1">
          <mxGeometry width="50" height="50" relative="1" as="geometry">
            <mxPoint x="480" y="280" as="sourcePoint" />
            <mxPoint x="475.0050000000001" y="190" as="targetPoint" />
          </mxGeometry>
        </mxCell>
        <mxCell id="e5rz-6hekVtycdCwCi9j-0" value="Initialize C = 200" style="rounded=1;whiteSpace=wrap;html=1;arcSize=0;" parent="JyyrVBmu4leUVjlZQpk8-1" vertex="1">
          <mxGeometry x="410" y="190" width="120" height="60" as="geometry" />
        </mxCell>
        <mxCell id="XcrOBSIyHyJBj23gdgJb-2" value="" style="endArrow=classic;html=1;" parent="JyyrVBmu4leUVjlZQpk8-1" source="e5rz-6hekVtycdCwCi9j-0" edge="1">
          <mxGeometry width="50" height="50" relative="1" as="geometry">
            <mxPoint x="470" y="250" as="sourcePoint" />
            <mxPoint x="470" y="330" as="targetPoint" />
          </mxGeometry>
        </mxCell>
        <mxCell id="XcrOBSIyHyJBj23gdgJb-3" value="If C%5 = 0" style="rhombus;whiteSpace=wrap;html=1;" parent="JyyrVBmu4leUVjlZQpk8-1" vertex="1">
          <mxGeometry x="410" y="600" width="80" height="80" as="geometry" />
        </mxCell>
        <mxCell id="XcrOBSIyHyJBj23gdgJb-5" value="" style="endArrow=classic;html=1;exitX=0;exitY=0.5;exitDx=0;exitDy=0;edgeStyle=orthogonalEdgeStyle;" parent="JyyrVBmu4leUVjlZQpk8-1" source="XcrOBSIyHyJBj23gdgJb-16" edge="1">
          <mxGeometry width="50" height="50" relative="1" as="geometry">
            <mxPoint x="430" y="360" as="sourcePoint" />
            <mxPoint x="270" y="410" as="targetPoint" />
            <Array as="points">
              <mxPoint x="270" y="370" />
            </Array>
          </mxGeometry>
        </mxCell>
        <mxCell id="XcrOBSIyHyJBj23gdgJb-6" value="YES" style="edgeLabel;html=1;align=center;verticalAlign=middle;resizable=0;points=[];" parent="XcrOBSIyHyJBj23gdgJb-5" vertex="1" connectable="0">
          <mxGeometry x="0.3641" y="2" relative="1" as="geometry">
            <mxPoint x="58" y="8" as="offset" />
          </mxGeometry>
        </mxCell>
        <mxCell id="XcrOBSIyHyJBj23gdgJb-7" value="Print C" style="rounded=1;whiteSpace=wrap;html=1;arcSize=0;" parent="JyyrVBmu4leUVjlZQpk8-1" vertex="1">
          <mxGeometry x="210" y="410" width="120" height="60" as="geometry" />
        </mxCell>
        <mxCell id="XcrOBSIyHyJBj23gdgJb-8" value="" style="endArrow=classic;html=1;exitX=0.5;exitY=1;exitDx=0;exitDy=0;edgeStyle=orthogonalEdgeStyle;entryX=0;entryY=0.5;entryDx=0;entryDy=0;" parent="JyyrVBmu4leUVjlZQpk8-1" source="XcrOBSIyHyJBj23gdgJb-7" target="XcrOBSIyHyJBj23gdgJb-9" edge="1">
          <mxGeometry width="50" height="50" relative="1" as="geometry">
            <mxPoint x="665" y="470" as="sourcePoint" />
            <mxPoint x="465" y="510" as="targetPoint" />
            <Array as="points">
              <mxPoint x="270" y="510" />
            </Array>
          </mxGeometry>
        </mxCell>
        <mxCell id="XcrOBSIyHyJBj23gdgJb-9" value="C = C+1" style="shape=parallelogram;perimeter=parallelogramPerimeter;whiteSpace=wrap;html=1;fixedSize=1;" parent="JyyrVBmu4leUVjlZQpk8-1" vertex="1">
          <mxGeometry x="400" y="480" width="120" height="60" as="geometry" />
        </mxCell>
        <mxCell id="XcrOBSIyHyJBj23gdgJb-10" value="" style="endArrow=classic;html=1;exitX=1;exitY=0.5;exitDx=0;exitDy=0;edgeStyle=orthogonalEdgeStyle;" parent="JyyrVBmu4leUVjlZQpk8-1" source="XcrOBSIyHyJBj23gdgJb-3" edge="1">
          <mxGeometry width="50" height="50" relative="1" as="geometry">
            <mxPoint x="360" y="520" as="sourcePoint" />
            <mxPoint x="470" y="310" as="targetPoint" />
            <Array as="points">
              <mxPoint x="700" y="640" />
              <mxPoint x="700" y="280" />
              <mxPoint x="470" y="280" />
            </Array>
          </mxGeometry>
        </mxCell>
        <mxCell id="XcrOBSIyHyJBj23gdgJb-21" value="NO" style="edgeLabel;html=1;align=center;verticalAlign=middle;resizable=0;points=[];" parent="XcrOBSIyHyJBj23gdgJb-10" vertex="1" connectable="0">
          <mxGeometry x="-0.8419" y="4" relative="1" as="geometry">
            <mxPoint as="offset" />
          </mxGeometry>
        </mxCell>
        <mxCell id="XcrOBSIyHyJBj23gdgJb-12" value="" style="endArrow=classic;html=1;exitX=0.433;exitY=0.983;exitDx=0;exitDy=0;exitPerimeter=0;" parent="JyyrVBmu4leUVjlZQpk8-1" source="XcrOBSIyHyJBj23gdgJb-9" edge="1">
          <mxGeometry width="50" height="50" relative="1" as="geometry">
            <mxPoint x="550" y="530" as="sourcePoint" />
            <mxPoint x="452" y="600" as="targetPoint" />
          </mxGeometry>
        </mxCell>
        <mxCell id="XcrOBSIyHyJBj23gdgJb-13" value="Stop" style="strokeWidth=2;html=1;shape=mxgraph.flowchart.terminator;whiteSpace=wrap;" parent="JyyrVBmu4leUVjlZQpk8-1" vertex="1">
          <mxGeometry x="400" y="750" width="100" height="60" as="geometry" />
        </mxCell>
        <mxCell id="XcrOBSIyHyJBj23gdgJb-16" value="If C&amp;gt;300" style="rhombus;whiteSpace=wrap;html=1;" parent="JyyrVBmu4leUVjlZQpk8-1" vertex="1">
          <mxGeometry x="430" y="330" width="80" height="80" as="geometry" />
        </mxCell>
        <mxCell id="XcrOBSIyHyJBj23gdgJb-19" value="" style="endArrow=classic;html=1;entryX=0.5;entryY=0;entryDx=0;entryDy=0;entryPerimeter=0;" parent="JyyrVBmu4leUVjlZQpk8-1" target="XcrOBSIyHyJBj23gdgJb-13" edge="1">
          <mxGeometry width="50" height="50" relative="1" as="geometry">
            <mxPoint x="450" y="680" as="sourcePoint" />
            <mxPoint x="500" y="630" as="targetPoint" />
          </mxGeometry>
        </mxCell>
        <mxCell id="XcrOBSIyHyJBj23gdgJb-20" value="YES" style="edgeLabel;html=1;align=center;verticalAlign=middle;resizable=0;points=[];" parent="XcrOBSIyHyJBj23gdgJb-19" vertex="1" connectable="0">
          <mxGeometry x="0.6" y="1" relative="1" as="geometry">
            <mxPoint x="-1" y="-26" as="offset" />
          </mxGeometry>
        </mxCell>
        <mxCell id="7q-pyxQtGqi2P6p_MFhe-0" value="" style="endArrow=classic;html=1;exitX=0.5;exitY=1;exitDx=0;exitDy=0;entryX=0.583;entryY=0;entryDx=0;entryDy=0;entryPerimeter=0;" parent="JyyrVBmu4leUVjlZQpk8-1" source="XcrOBSIyHyJBj23gdgJb-16" target="XcrOBSIyHyJBj23gdgJb-9" edge="1">
          <mxGeometry width="50" height="50" relative="1" as="geometry">
            <mxPoint x="400" y="370" as="sourcePoint" />
            <mxPoint x="450" y="320" as="targetPoint" />
          </mxGeometry>
        </mxCell>
      </root>
    </mxGraphModel>
  </diagram>
  <diagram id="7R0w8iJ-GQLTEpwz2dJQ" name="Page-3">
    <mxGraphModel dx="796" dy="462" grid="1" gridSize="10" guides="1" tooltips="1" connect="1" arrows="1" fold="1" page="1" pageScale="1" pageWidth="850" pageHeight="1100" math="0" shadow="0">
      <root>
        <mxCell id="GKlXK5mWs2Hf0xCrfP-d-0" />
        <mxCell id="GKlXK5mWs2Hf0xCrfP-d-1" parent="GKlXK5mWs2Hf0xCrfP-d-0" />
        <mxCell id="jtvrJe3paq_NZfnfINRW-0" value="Start" style="strokeWidth=2;html=1;shape=mxgraph.flowchart.terminator;whiteSpace=wrap;" vertex="1" parent="GKlXK5mWs2Hf0xCrfP-d-1">
          <mxGeometry x="370" y="210" width="100" height="60" as="geometry" />
        </mxCell>
        <mxCell id="jtvrJe3paq_NZfnfINRW-1" value="" style="endArrow=classic;html=1;exitX=0.5;exitY=1;exitDx=0;exitDy=0;exitPerimeter=0;" edge="1" parent="GKlXK5mWs2Hf0xCrfP-d-1" source="jtvrJe3paq_NZfnfINRW-0" target="jtvrJe3paq_NZfnfINRW-2">
          <mxGeometry width="50" height="50" relative="1" as="geometry">
            <mxPoint x="370" y="440" as="sourcePoint" />
            <mxPoint x="420" y="360" as="targetPoint" />
          </mxGeometry>
        </mxCell>
        <mxCell id="jtvrJe3paq_NZfnfINRW-2" value="A=1" style="shape=parallelogram;perimeter=parallelogramPerimeter;whiteSpace=wrap;html=1;fixedSize=1;" vertex="1" parent="GKlXK5mWs2Hf0xCrfP-d-1">
          <mxGeometry x="360" y="330" width="120" height="60" as="geometry" />
        </mxCell>
        <mxCell id="jtvrJe3paq_NZfnfINRW-4" value="" style="endArrow=classic;html=1;exitX=0.5;exitY=1;exitDx=0;exitDy=0;" edge="1" parent="GKlXK5mWs2Hf0xCrfP-d-1" source="jtvrJe3paq_NZfnfINRW-2">
          <mxGeometry width="50" height="50" relative="1" as="geometry">
            <mxPoint x="600" y="460" as="sourcePoint" />
            <mxPoint x="420" y="480" as="targetPoint" />
          </mxGeometry>
        </mxCell>
        <mxCell id="jtvrJe3paq_NZfnfINRW-5" value="Print A" style="rounded=1;whiteSpace=wrap;html=1;arcSize=0;" vertex="1" parent="GKlXK5mWs2Hf0xCrfP-d-1">
          <mxGeometry x="360" y="480" width="120" height="60" as="geometry" />
        </mxCell>
        <mxCell id="jtvrJe3paq_NZfnfINRW-6" value="" style="endArrow=classic;html=1;exitX=0.5;exitY=1;exitDx=0;exitDy=0;" edge="1" parent="GKlXK5mWs2Hf0xCrfP-d-1" source="jtvrJe3paq_NZfnfINRW-5">
          <mxGeometry width="50" height="50" relative="1" as="geometry">
            <mxPoint x="370" y="500" as="sourcePoint" />
            <mxPoint x="420" y="600" as="targetPoint" />
          </mxGeometry>
        </mxCell>
        <mxCell id="jtvrJe3paq_NZfnfINRW-7" value="If A%6=0" style="rhombus;whiteSpace=wrap;html=1;" vertex="1" parent="GKlXK5mWs2Hf0xCrfP-d-1">
          <mxGeometry x="370" y="720" width="80" height="80" as="geometry" />
        </mxCell>
        <mxCell id="jtvrJe3paq_NZfnfINRW-8" value="A=A+1" style="shape=parallelogram;perimeter=parallelogramPerimeter;whiteSpace=wrap;html=1;fixedSize=1;" vertex="1" parent="GKlXK5mWs2Hf0xCrfP-d-1">
          <mxGeometry x="350" y="600" width="120" height="60" as="geometry" />
        </mxCell>
        <mxCell id="jtvrJe3paq_NZfnfINRW-9" value="" style="endArrow=classic;html=1;exitX=0.5;exitY=1;exitDx=0;exitDy=0;" edge="1" parent="GKlXK5mWs2Hf0xCrfP-d-1" source="jtvrJe3paq_NZfnfINRW-8">
          <mxGeometry width="50" height="50" relative="1" as="geometry">
            <mxPoint x="360" y="640" as="sourcePoint" />
            <mxPoint x="410" y="720" as="targetPoint" />
          </mxGeometry>
        </mxCell>
        <mxCell id="jtvrJe3paq_NZfnfINRW-10" value="NO" style="endArrow=classic;html=1;exitX=0;exitY=0.5;exitDx=0;exitDy=0;edgeStyle=elbowEdgeStyle;" edge="1" parent="GKlXK5mWs2Hf0xCrfP-d-1" source="jtvrJe3paq_NZfnfINRW-7">
          <mxGeometry width="50" height="50" relative="1" as="geometry">
            <mxPoint x="360" y="880" as="sourcePoint" />
            <mxPoint x="420" y="440" as="targetPoint" />
            <Array as="points">
              <mxPoint x="220" y="610" />
            </Array>
          </mxGeometry>
        </mxCell>
        <mxCell id="jtvrJe3paq_NZfnfINRW-11" value="Yes" style="endArrow=classic;html=1;exitX=0.5;exitY=1;exitDx=0;exitDy=0;" edge="1" parent="GKlXK5mWs2Hf0xCrfP-d-1" source="jtvrJe3paq_NZfnfINRW-7" target="jtvrJe3paq_NZfnfINRW-12">
          <mxGeometry width="50" height="50" relative="1" as="geometry">
            <mxPoint x="350" y="920" as="sourcePoint" />
            <mxPoint x="410" y="870" as="targetPoint" />
          </mxGeometry>
        </mxCell>
        <mxCell id="jtvrJe3paq_NZfnfINRW-12" value="If A&amp;gt;60" style="rhombus;whiteSpace=wrap;html=1;" vertex="1" parent="GKlXK5mWs2Hf0xCrfP-d-1">
          <mxGeometry x="370" y="840" width="80" height="80" as="geometry" />
        </mxCell>
        <mxCell id="jtvrJe3paq_NZfnfINRW-13" value="Yes" style="endArrow=classic;html=1;exitX=0.5;exitY=1;exitDx=0;exitDy=0;" edge="1" parent="GKlXK5mWs2Hf0xCrfP-d-1" source="jtvrJe3paq_NZfnfINRW-12" target="jtvrJe3paq_NZfnfINRW-14">
          <mxGeometry width="50" height="50" relative="1" as="geometry">
            <mxPoint x="350" y="920" as="sourcePoint" />
            <mxPoint x="410" y="970" as="targetPoint" />
          </mxGeometry>
        </mxCell>
        <mxCell id="jtvrJe3paq_NZfnfINRW-14" value="Stop" style="strokeWidth=2;html=1;shape=mxgraph.flowchart.terminator;whiteSpace=wrap;" vertex="1" parent="GKlXK5mWs2Hf0xCrfP-d-1">
          <mxGeometry x="360" y="960" width="100" height="60" as="geometry" />
        </mxCell>
        <mxCell id="jtvrJe3paq_NZfnfINRW-16" value="No" style="endArrow=classic;html=1;exitX=1;exitY=0.5;exitDx=0;exitDy=0;edgeStyle=orthogonalEdgeStyle;" edge="1" parent="GKlXK5mWs2Hf0xCrfP-d-1" source="jtvrJe3paq_NZfnfINRW-12">
          <mxGeometry width="50" height="50" relative="1" as="geometry">
            <mxPoint x="370" y="910" as="sourcePoint" />
            <mxPoint x="420" y="590" as="targetPoint" />
            <Array as="points">
              <mxPoint x="640" y="880" />
              <mxPoint x="640" y="590" />
            </Array>
          </mxGeometry>
        </mxCell>
      </root>
    </mxGraphModel>
  </diagram>
</mxfile>
